<mxfile host="app.diagrams.net" modified="2023-07-15T12:18:23.976Z" agent="Mozilla/5.0 (Windows NT 10.0; Win64; x64) AppleWebKit/537.36 (KHTML, like Gecko) Chrome/114.0.0.0 Safari/537.36" etag="I8P6elZaFcN1bxgyceca" version="21.6.2" type="device">
  <diagram id="C5RBs43oDa-KdzZeNtuy" name="Page-1">
    <mxGraphModel dx="1750" dy="2147" grid="1" gridSize="10" guides="1" tooltips="1" connect="1" arrows="1" fold="1" page="1" pageScale="1" pageWidth="827" pageHeight="1169" math="0" shadow="0">
      <root>
        <mxCell id="WIyWlLk6GJQsqaUBKTNV-0" />
        <mxCell id="WIyWlLk6GJQsqaUBKTNV-1" parent="WIyWlLk6GJQsqaUBKTNV-0" />
        <mxCell id="uwfJpqVd9WzeynNxQDzf-1" value="applications" style="shape=umlFrame;whiteSpace=wrap;html=1;width=100;height=30;flipH=0;" parent="WIyWlLk6GJQsqaUBKTNV-1" vertex="1">
          <mxGeometry x="40" y="-1150" width="380" height="110" as="geometry" />
        </mxCell>
        <mxCell id="uwfJpqVd9WzeynNxQDzf-5" value="libraries" style="shape=umlFrame;whiteSpace=wrap;html=1;width=100;height=30;" parent="WIyWlLk6GJQsqaUBKTNV-1" vertex="1">
          <mxGeometry x="40" y="-1010" width="380" height="590" as="geometry" />
        </mxCell>
        <mxCell id="wTLT_p1KPuhMP4MYyWY3-7" value="system" style="shape=module;align=left;spacingLeft=20;align=center;verticalAlign=top;html=1;direction=east;" parent="WIyWlLk6GJQsqaUBKTNV-1" vertex="1">
          <mxGeometry x="50" y="-480" width="100" height="50" as="geometry" />
        </mxCell>
        <mxCell id="gnWsdmeyHeUerrLaL-5L-1" value="movie" style="shape=module;align=left;spacingLeft=20;align=center;verticalAlign=top;html=1;direction=east;" parent="WIyWlLk6GJQsqaUBKTNV-1" vertex="1">
          <mxGeometry x="180" y="-720" width="100" height="50" as="geometry" />
        </mxCell>
        <mxCell id="gnWsdmeyHeUerrLaL-5L-2" value="graphics" style="shape=module;align=left;spacingLeft=20;align=center;verticalAlign=top;html=1;direction=east;" parent="WIyWlLk6GJQsqaUBKTNV-1" vertex="1">
          <mxGeometry x="50" y="-640" width="100" height="50" as="geometry" />
        </mxCell>
        <mxCell id="gnWsdmeyHeUerrLaL-5L-3" value="resource" style="shape=module;align=left;spacingLeft=20;align=center;verticalAlign=top;html=1;direction=east;" parent="WIyWlLk6GJQsqaUBKTNV-1" vertex="1">
          <mxGeometry x="50" y="-560" width="100" height="50" as="geometry" />
        </mxCell>
        <mxCell id="gnWsdmeyHeUerrLaL-5L-4" value="scene" style="shape=module;align=left;spacingLeft=20;align=center;verticalAlign=top;html=1;direction=east;" parent="WIyWlLk6GJQsqaUBKTNV-1" vertex="1">
          <mxGeometry x="50" y="-720" width="100" height="50" as="geometry" />
        </mxCell>
        <mxCell id="gnWsdmeyHeUerrLaL-5L-5" value="gui" style="shape=module;align=left;spacingLeft=20;align=center;verticalAlign=top;html=1;direction=east;" parent="WIyWlLk6GJQsqaUBKTNV-1" vertex="1">
          <mxGeometry x="50" y="-800" width="100" height="50" as="geometry" />
        </mxCell>
        <mxCell id="gnWsdmeyHeUerrLaL-5L-6" value="script" style="shape=module;align=left;spacingLeft=20;align=center;verticalAlign=top;html=1;direction=east;" parent="WIyWlLk6GJQsqaUBKTNV-1" vertex="1">
          <mxGeometry x="310" y="-720" width="100" height="50" as="geometry" />
        </mxCell>
        <mxCell id="hj-piPnPRJIngDWY3FeU-0" value="audio" style="shape=module;align=left;spacingLeft=20;align=center;verticalAlign=top;direction=east;" parent="WIyWlLk6GJQsqaUBKTNV-1" vertex="1">
          <mxGeometry x="180" y="-640" width="100" height="50" as="geometry" />
        </mxCell>
        <mxCell id="v-eWyspMXQ56PKsTLA4A-5" value="launcher" style="shape=module;align=left;spacingLeft=20;align=center;verticalAlign=top;html=1;" parent="WIyWlLk6GJQsqaUBKTNV-1" vertex="1">
          <mxGeometry x="180" y="-1100" width="100" height="50" as="geometry" />
        </mxCell>
        <mxCell id="F_gQUoQRdA11ZhNdmKd8-1" value="game" style="shape=module;align=center;spacingLeft=20;align=center;verticalAlign=top;html=1;labelPosition=center;verticalLabelPosition=middle;direction=east;" parent="WIyWlLk6GJQsqaUBKTNV-1" vertex="1">
          <mxGeometry x="50" y="-880" width="100" height="50" as="geometry" />
        </mxCell>
        <mxCell id="wTLT_p1KPuhMP4MYyWY3-14" value="reone" style="shape=module;align=left;spacingLeft=20;align=center;verticalAlign=top;html=1;" parent="WIyWlLk6GJQsqaUBKTNV-1" vertex="1">
          <mxGeometry x="50" y="-1100" width="100" height="50" as="geometry" />
        </mxCell>
        <mxCell id="wTLT_p1KPuhMP4MYyWY3-15" value="toolkit" style="shape=module;align=left;spacingLeft=20;align=center;verticalAlign=top;html=1;" parent="WIyWlLk6GJQsqaUBKTNV-1" vertex="1">
          <mxGeometry x="310" y="-1100" width="100" height="50" as="geometry" />
        </mxCell>
        <mxCell id="-GsOFkJRAlTUAmM-WTSo-0" value="tools" style="shape=module;align=center;spacingLeft=20;align=center;verticalAlign=top;html=1;labelPosition=center;verticalLabelPosition=middle;direction=east;" parent="WIyWlLk6GJQsqaUBKTNV-1" vertex="1">
          <mxGeometry x="50" y="-960" width="100" height="50" as="geometry" />
        </mxCell>
        <mxCell id="3OdTSQqyq2VGqYtSOOhK-2" value="" style="shape=flexArrow;endArrow=classic;html=1;rounded=0;" edge="1" parent="WIyWlLk6GJQsqaUBKTNV-1">
          <mxGeometry width="50" height="50" relative="1" as="geometry">
            <mxPoint x="19" y="-960" as="sourcePoint" />
            <mxPoint x="19" y="-430" as="targetPoint" />
          </mxGeometry>
        </mxCell>
      </root>
    </mxGraphModel>
  </diagram>
</mxfile>
